<?xml version="1.0" encoding="utf-8"?>
<!-- Generator: Adobe Illustrator 27.5.0, SVG Export Plug-In . SVG Version: 6.00 Build 0)  -->
<svg version="1.1" xmlns="http://www.w3.org/2000/svg" xmlns:xlink="http://www.w3.org/1999/xlink" x="0px" y="0px"
	 viewBox="0 0 3710 3710" style="enable-background:new 0 0 3710 3710;" xml:space="preserve">
<g id="Background">
	<g>
		<g>
			<rect style="fill:#FFFFFF;" width="3710" height="3710"/>
		</g>
	</g>
</g>
<g id="Illustration">
	<g>
		<linearGradient id="SVGID_1_" gradientUnits="userSpaceOnUse" x1="3510.9836" y1="3701.1072" x2="1532.7245" y2="1595.2189">
			<stop  offset="0" style="stop-color:#DAE3FE"/>
			<stop  offset="1" style="stop-color:#E9EFFD"/>
		</linearGradient>
		<path style="fill:url(#SVGID_1_);" d="M2913.707,2859.146c-72.798,75.483-137.935,119.855-187.807,153.352
			c-486.385,326.692-1042.377,232.531-1214.276,200.347c-277.338-51.925-511.449-88.555-712.592-271.359
			c-457.059-415.385-434.828-1281.911-85.58-1818.686c41.41-63.646,390.13-583.625,947.325-656.895
			c13.628-1.792,23.797-2.813,32.703-3.761c86.197-9.181,620.341-57.633,1055.883,309.43
			c62.346,52.543,162.678,147.318,255.718,291.864C3345.28,1591.966,3346.358,2410.539,2913.707,2859.146z"/>
		<g>
			<g>
				<path style="fill:#91B3FA;" d="M2741.677,1789.392c0,0,296.62-348.606,281.954-785.406
					C3010.88,624.205,2780.68,685.527,2893.78,852.24c33.339,49.142,94.314,99.84,100.417,154.175
					C3021.706,1251.322,2918.956,1528.016,2741.677,1789.392z"/>
			</g>
			<g>
				<path style="fill:#91B3FA;" d="M2714.849,1852.301c0,0,213.426-369.854,158.845-766.717
					c-47.456-345.059-233.381-249.328-122.946-116.378c32.553,39.19,88.292,75.04,98.648,123.67
					C2896.074,1312.068,2837.264,1582.768,2714.849,1852.301z"/>
			</g>
			<g>
				<path style="fill:#91B3FA;" d="M2758.071,1763.493c0,0,177.714-208.86,168.927-470.559
					c-7.64-227.538-145.559-190.798-77.798-90.915c19.974,29.443,56.506,59.817,60.163,92.37
					C2925.845,1441.12,2864.284,1606.895,2758.071,1763.493z"/>
			</g>
		</g>
		<g>
			<path style="fill:#BDD0FB;" d="M1735.808,553.119c-0.174-7.655-3.508-14.896-9.209-20.007
				c-5.701-5.111-13.264-7.634-20.891-6.973l-770.49,66.741c-14.325,1.242-25.767,13.232-25.767,27.611V2169.36
				c0,15.307,13.299,26.561,28.606,26.561h806.829c7.459,0,14.604-2.43,19.819-7.765c5.215-5.335,8.058-12.257,7.888-19.716
				L1735.808,553.119z"/>
			<g style="opacity:0.3;">
				<path style="fill:#FFFFFF;" d="M1062.056,669.272l-58.808,3.982c-6.445,0.422-9.747,6.375-9.747,13.296v1412.832
					c0,7.067,1.437,15.464,7.95,15.464h61.375c6.554,0,11.938-7.086,11.934-14.18l-0.881-1418.924
					C1073.875,674.796,1068.541,668.847,1062.056,669.272z"/>
				<path style="fill:#FFFFFF;" d="M1204.721,659.917l-61.517,4.034c-6.529,0.428-12.826,6.488-12.819,13.453l1.475,1423.23
					c0.007,7.113,6.384,14.213,12.983,14.213h62.181c6.64,0,11.057-7.123,11.044-14.264l-2.378-1428.059
					C1215.678,665.534,1211.29,659.487,1204.721,659.917z"/>
				<path style="fill:#FFFFFF;" d="M1349.248,650.44l-62.322,4.087c-6.614,0.434-10.426,6.367-10.411,13.378l3.027,1432.644
					c0.015,7.16,3.894,14.299,10.58,14.299h63.002c6.728,0,13.806-7.162,13.786-14.35l-3.955-1437.544
					C1362.935,655.915,1355.903,650.004,1349.248,650.44z"/>
				<path style="fill:#FFFFFF;" d="M1495.673,640.839l-63.142,4.14c-6.701,0.44-11.598,6.481-11.575,13.537l4.581,1441.947
					c0.023,7.208,5.01,14.385,11.785,14.385h63.841c6.818,0,12.924-7.2,12.896-14.436l-5.533-1446.921
					C1508.499,646.407,1502.416,640.396,1495.673,640.839z"/>
				<path style="fill:#FFFFFF;" d="M1644.036,631.109l-63.979,4.196c-6.79,0.445-12.798,6.597-12.768,13.699l6.176,1451.373
					c0.031,7.255,6.157,14.471,13.022,14.471h64.696c6.909,0,12.017-7.239,11.981-14.523l-7.154-1456.42
					C1655.976,636.774,1650.868,630.662,1644.036,631.109z"/>
			</g>
		</g>
		<g>
			<path style="fill:#BDD0FB;" d="M2655.499,749.559c-0.284-15.101-12.606-27.809-27.71-27.809h-570.904
				c-15.307,0-28.606,13.638-28.606,28.945v1368.092c0,7.363,3.376,14.424,8.589,19.624c5.214,5.199,12.506,8.11,19.869,8.09
				l596.695-1.63c7.427-0.02,14.591-3.021,19.786-8.33c5.196-5.308,8.07-12.787,7.931-20.213L2655.499,749.559z"/>
			<g style="opacity:0.5;">
				<g>
					<path style="fill:#FFFFFF;" d="M2220.252,776.339h-147.511c-4.387,0-3.714,7.47-3.714,12.161v26.7
						c0,4.692-0.674,11.712,3.714,11.712h147.511c4.386,0,7.239-7.02,7.239-11.712v-26.7
						C2227.491,783.809,2224.638,776.339,2220.252,776.339z"/>
					<path style="fill:#FFFFFF;" d="M2417.69,776.339h-147.511c-4.387,0-5.601,7.47-5.601,12.161v26.7
						c0,4.692,1.214,11.712,5.601,11.712h147.511c4.386,0,5.351-7.02,5.351-11.712v-26.7
						C2423.041,783.809,2422.076,776.339,2417.69,776.339z"/>
					<path style="fill:#FFFFFF;" d="M2615.128,776.339h-147.511c-4.387,0-10.86,7.47-10.86,12.161v26.7
						c0,4.692,6.473,11.712,10.86,11.712h147.511c4.386,0,10.207-7.02,10.207-11.712v-26.7
						C2625.335,783.809,2619.514,776.339,2615.128,776.339z"/>
				</g>
				<g>
					<path style="fill:#FFFFFF;" d="M2220.252,890.972h-147.511c-4.387,0-3.714-1.577-3.714,3.115v26.7
						c0,4.692-0.674,14.015,3.714,14.015h147.511c4.386,0,7.239-9.323,7.239-14.015v-26.7
						C2227.491,889.395,2224.638,890.972,2220.252,890.972z"/>
					<path style="fill:#FFFFFF;" d="M2417.69,890.972h-147.511c-4.387,0-5.601-1.577-5.601,3.115v26.7
						c0,4.692,1.214,14.015,5.601,14.015h147.511c4.386,0,5.351-9.323,5.351-14.015v-26.7
						C2423.041,889.395,2422.076,890.972,2417.69,890.972z"/>
					<path style="fill:#FFFFFF;" d="M2615.128,890.972h-147.511c-4.387,0-10.86-1.577-10.86,3.115v26.7
						c0,4.692,6.473,14.015,10.86,14.015h147.511c4.386,0,10.207-9.323,10.207-14.015v-26.7
						C2625.335,889.395,2619.514,890.972,2615.128,890.972z"/>
				</g>
				<g>
					<path style="fill:#FFFFFF;" d="M2220.252,992.119h-147.511c-4.387,0-3.714,2.863-3.714,7.555v26.7
						c0,4.692-0.674,9.576,3.714,9.576h147.511c4.386,0,7.239-4.883,7.239-9.576v-26.7
						C2227.491,994.982,2224.638,992.119,2220.252,992.119z"/>
					<path style="fill:#FFFFFF;" d="M2417.69,992.119h-147.511c-4.387,0-5.601,2.863-5.601,7.555v26.7
						c0,4.692,1.214,9.576,5.601,9.576h147.511c4.386,0,5.351-4.883,5.351-9.576v-26.7
						C2423.041,994.982,2422.076,992.119,2417.69,992.119z"/>
					<path style="fill:#FFFFFF;" d="M2615.128,992.119h-147.511c-4.387,0-10.86,2.863-10.86,7.555v26.7
						c0,4.692,6.473,9.576,10.86,9.576h147.511c4.386,0,10.207-4.883,10.207-9.576v-26.7
						C2625.335,994.982,2619.514,992.119,2615.128,992.119z"/>
				</g>
				<g>
					<path style="fill:#FFFFFF;" d="M2220.252,1100.009h-147.511c-4.387,0-3.714,0.56-3.714,5.252v26.7
						c0,4.692-0.674,11.879,3.714,11.879h147.511c4.386,0,7.239-7.187,7.239-11.879v-26.7
						C2227.491,1100.568,2224.638,1100.009,2220.252,1100.009z"/>
					<path style="fill:#FFFFFF;" d="M2417.69,1100.009h-147.511c-4.387,0-5.601,0.56-5.601,5.252v26.7
						c0,4.692,1.214,11.879,5.601,11.879h147.511c4.386,0,5.351-7.187,5.351-11.879v-26.7
						C2423.041,1100.568,2422.076,1100.009,2417.69,1100.009z"/>
					<path style="fill:#FFFFFF;" d="M2615.128,1100.009h-147.511c-4.387,0-10.86,0.56-10.86,5.252v26.7
						c0,4.692,6.473,11.879,10.86,11.879h147.511c4.386,0,10.207-7.187,10.207-11.879v-26.7
						C2625.335,1100.568,2619.514,1100.009,2615.128,1100.009z"/>
				</g>
				<g>
					<path style="fill:#FFFFFF;" d="M2220.252,1201.155h-147.511c-4.387,0-3.714,4.999-3.714,9.691v26.7
						c0,4.692-0.674,7.439,3.714,7.439h147.511c4.386,0,7.239-2.747,7.239-7.439v-26.7
						C2227.491,1206.155,2224.638,1201.155,2220.252,1201.155z"/>
					<path style="fill:#FFFFFF;" d="M2417.69,1201.155h-147.511c-4.387,0-5.601,4.999-5.601,9.691v26.7
						c0,4.692,1.214,7.439,5.601,7.439h147.511c4.386,0,5.351-2.747,5.351-7.439v-26.7
						C2423.041,1206.155,2422.076,1201.155,2417.69,1201.155z"/>
					<path style="fill:#FFFFFF;" d="M2615.128,1201.155h-147.511c-4.387,0-10.86,4.999-10.86,9.691v26.7
						c0,4.692,6.473,7.439,10.86,7.439h147.511c4.386,0,10.207-2.747,10.207-7.439v-26.7
						C2625.335,1206.155,2619.514,1201.155,2615.128,1201.155z"/>
				</g>
				<g>
					<path style="fill:#FFFFFF;" d="M2220.252,1309.045h-147.511c-4.387,0-3.714,2.696-3.714,7.388v26.7
						c0,4.692-0.674,9.742,3.714,9.742h147.511c4.386,0,7.239-5.05,7.239-9.742v-26.7
						C2227.491,1311.741,2224.638,1309.045,2220.252,1309.045z"/>
					<path style="fill:#FFFFFF;" d="M2417.69,1309.045h-147.511c-4.387,0-5.601,2.696-5.601,7.388v26.7
						c0,4.692,1.214,9.742,5.601,9.742h147.511c4.386,0,5.351-5.05,5.351-9.742v-26.7
						C2423.041,1311.741,2422.076,1309.045,2417.69,1309.045z"/>
					<path style="fill:#FFFFFF;" d="M2615.128,1309.045h-147.511c-4.387,0-10.86,2.696-10.86,7.388v26.7
						c0,4.692,6.473,9.742,10.86,9.742h147.511c4.386,0,10.207-5.05,10.207-9.742v-26.7
						C2625.335,1311.741,2619.514,1309.045,2615.128,1309.045z"/>
				</g>
				<g>
					<path style="fill:#FFFFFF;" d="M2220.252,1410.192h-147.511c-4.387,0-3.714,7.136-3.714,11.828v26.699
						c0,4.693-0.674,12.047,3.714,12.047h147.511c4.386,0,7.239-7.354,7.239-12.047v-26.699
						C2227.491,1417.328,2224.638,1410.192,2220.252,1410.192z"/>
					<path style="fill:#FFFFFF;" d="M2417.69,1410.192h-147.511c-4.387,0-5.601,7.136-5.601,11.828v26.699
						c0,4.693,1.214,12.047,5.601,12.047h147.511c4.386,0,5.351-7.354,5.351-12.047v-26.699
						C2423.041,1417.328,2422.076,1410.192,2417.69,1410.192z"/>
					<path style="fill:#FFFFFF;" d="M2615.128,1410.192h-147.511c-4.387,0-10.86,7.136-10.86,11.828v26.699
						c0,4.693,6.473,12.047,10.86,12.047h147.511c4.386,0,10.207-7.354,10.207-12.047v-26.699
						C2625.335,1417.328,2619.514,1410.192,2615.128,1410.192z"/>
				</g>
				<g>
					<path style="fill:#FFFFFF;" d="M2220.252,1518.082h-147.511c-4.387,0-3.714,4.832-3.714,9.524v26.7
						c0,4.692-0.674,14.35,3.714,14.35h147.511c4.386,0,7.239-9.657,7.239-14.35v-26.7
						C2227.491,1522.914,2224.638,1518.082,2220.252,1518.082z"/>
					<path style="fill:#FFFFFF;" d="M2417.69,1518.082h-147.511c-4.387,0-5.601,4.832-5.601,9.524v26.7
						c0,4.692,1.214,14.35,5.601,14.35h147.511c4.386,0,5.351-9.657,5.351-14.35v-26.7
						C2423.041,1522.914,2422.076,1518.082,2417.69,1518.082z"/>
					<path style="fill:#FFFFFF;" d="M2615.128,1518.082h-147.511c-4.387,0-10.86,4.832-10.86,9.524v26.7
						c0,4.692,6.473,14.35,10.86,14.35h147.511c4.386,0,10.207-9.657,10.207-14.35v-26.7
						C2625.335,1522.914,2619.514,1518.082,2615.128,1518.082z"/>
				</g>
				<g>
					<path style="fill:#FFFFFF;" d="M2220.252,1622.6h-147.511c-4.387,0-3.714,5.9-3.714,10.592v26.7c0,4.692-0.674,9.91,3.714,9.91
						h147.511c4.386,0,7.239-5.218,7.239-9.91v-26.7C2227.491,1628.5,2224.638,1622.6,2220.252,1622.6z"/>
					<path style="fill:#FFFFFF;" d="M2417.69,1622.6h-147.511c-4.387,0-5.601,5.9-5.601,10.592v26.7c0,4.692,1.214,9.91,5.601,9.91
						h147.511c4.386,0,5.351-5.218,5.351-9.91v-26.7C2423.041,1628.5,2422.076,1622.6,2417.69,1622.6z"/>
					<path style="fill:#FFFFFF;" d="M2615.128,1622.6h-147.511c-4.387,0-10.86,5.9-10.86,10.592v26.7c0,4.692,6.473,9.91,10.86,9.91
						h147.511c4.386,0,10.207-5.218,10.207-9.91v-26.7C2625.335,1628.5,2619.514,1622.6,2615.128,1622.6z"/>
				</g>
				<g>
					<path style="fill:#FFFFFF;" d="M2220.252,1733.861h-147.511c-4.387,0-3.714,0.225-3.714,4.917v26.7
						c0,4.692-0.674,12.214,3.714,12.214h147.511c4.386,0,7.239-7.521,7.239-12.214v-26.7
						C2227.491,1734.087,2224.638,1733.861,2220.252,1733.861z"/>
					<path style="fill:#FFFFFF;" d="M2417.69,1733.861h-147.511c-4.387,0-5.601,0.225-5.601,4.917v26.7
						c0,4.692,1.214,12.214,5.601,12.214h147.511c4.386,0,5.351-7.521,5.351-12.214v-26.7
						C2423.041,1734.087,2422.076,1733.861,2417.69,1733.861z"/>
					<path style="fill:#FFFFFF;" d="M2615.128,1733.861h-147.511c-4.387,0-10.86,0.225-10.86,4.917v26.7
						c0,4.692,6.473,12.214,10.86,12.214h147.511c4.386,0,10.207-7.521,10.207-12.214v-26.7
						C2625.335,1734.087,2619.514,1733.861,2615.128,1733.861z"/>
				</g>
				<g>
					<path style="fill:#FFFFFF;" d="M2220.252,1841.751h-147.511c-4.387,0-3.714-2.078-3.714,2.613v26.7
						c0,4.692-0.674,7.774,3.714,7.774h147.511c4.386,0,7.239-3.082,7.239-7.774v-26.7
						C2227.491,1839.673,2224.638,1841.751,2220.252,1841.751z"/>
					<path style="fill:#FFFFFF;" d="M2417.69,1841.751h-147.511c-4.387,0-5.601-2.078-5.601,2.613v26.7
						c0,4.692,1.214,7.774,5.601,7.774h147.511c4.386,0,5.351-3.082,5.351-7.774v-26.7
						C2423.041,1839.673,2422.076,1841.751,2417.69,1841.751z"/>
					<path style="fill:#FFFFFF;" d="M2615.128,1841.751h-147.511c-4.387,0-10.86-2.078-10.86,2.613v26.7
						c0,4.692,6.473,7.774,10.86,7.774h147.511c4.386,0,10.207-3.082,10.207-7.774v-26.7
						C2625.335,1839.673,2619.514,1841.751,2615.128,1841.751z"/>
				</g>
				<g>
					<path style="fill:#FFFFFF;" d="M2220.252,1942.898h-147.511c-4.387,0-3.714,2.362-3.714,7.053v26.7
						c0,4.693-0.674,10.077,3.714,10.077h147.511c4.386,0,7.239-5.385,7.239-10.077v-26.7
						C2227.491,1945.26,2224.638,1942.898,2220.252,1942.898z"/>
					<path style="fill:#FFFFFF;" d="M2417.69,1942.898h-147.511c-4.387,0-5.601,2.362-5.601,7.053v26.7
						c0,4.693,1.214,10.077,5.601,10.077h147.511c4.386,0,5.351-5.385,5.351-10.077v-26.7
						C2423.041,1945.26,2422.076,1942.898,2417.69,1942.898z"/>
					<path style="fill:#FFFFFF;" d="M2615.128,1942.898h-147.511c-4.387,0-10.86,2.362-10.86,7.053v26.7
						c0,4.693,6.473,10.077,10.86,10.077h147.511c4.386,0,10.207-5.385,10.207-10.077v-26.7
						C2625.335,1945.26,2619.514,1942.898,2615.128,1942.898z"/>
				</g>
			</g>
		</g>
		<g>
			<path style="fill:#91B3FA;" d="M1075.115,804.622c-0.104-7.475-3.223-14.592-8.649-19.734
				c-5.428-5.142-12.702-7.873-20.173-7.574l-567.657,22.759c-9.743,0.39-17.372,8.523-17.142,18.271l28.815,1213.524l573.984-7.003
				c7.358-0.09,14.378-3.102,19.513-8.373c5.135-5.27,7.964-12.367,7.861-19.725L1075.115,804.622z"/>
			<g style="opacity:0.5;">
				<g>
					<polygon style="fill:#FFFFFF;" points="617.945,1027.563 526.598,1027.225 525.518,870.743 617.066,870.743 					"/>
					<polygon style="fill:#FFFFFF;" points="749.069,1027.273 658.063,1026.934 657.272,870.743 748.478,870.743 					"/>
					<polygon style="fill:#FFFFFF;" points="886.949,1026.968 796.3,1026.628 795.812,870.743 886.659,870.743 					"/>
					<polygon style="fill:#FFFFFF;" points="1023.845,1027.753 931.959,1026.872 930.182,870.743 1023.845,870.743 					"/>
				</g>
				<g>
					<polygon style="fill:#FFFFFF;" points="619.193,1249.956 528.131,1250.444 527.059,1095.47 618.32,1095.182 					"/>
					<polygon style="fill:#FFFFFF;" points="749.909,1249.257 659.186,1249.742 658.4,1095.056 749.322,1094.769 					"/>
					<polygon style="fill:#FFFFFF;" points="887.363,1248.52 796.993,1249.005 796.508,1094.62 887.074,1094.334 					"/>
					<polygon style="fill:#FFFFFF;" points="1023.845,1247.806 932.238,1248.289 932.834,1094.197 1023.845,1093.912 					"/>
				</g>
				<g>
					<polygon style="fill:#FFFFFF;" points="620.475,1477.209 529.706,1477.989 528.641,1324.005 619.607,1323.422 					"/>
					<polygon style="fill:#FFFFFF;" points="750.773,1476.091 660.339,1476.867 659.559,1323.167 750.188,1322.587 					"/>
					<polygon style="fill:#FFFFFF;" points="887.786,1474.915 797.706,1475.688 797.224,1322.286 887.499,1321.708 					"/>
					<polygon style="fill:#FFFFFF;" points="1023.845,1473.775 932.524,1474.545 933.121,1321.432 1023.845,1320.857 					"/>
				</g>
				<g>
					<polygon style="fill:#FFFFFF;" points="621.729,1699.385 531.246,1700.447 530.212,1551.08 620.887,1550.207 					"/>
					<polygon style="fill:#FFFFFF;" points="751.616,1697.86 661.467,1698.919 660.71,1549.824 751.05,1548.955 					"/>
					<polygon style="fill:#FFFFFF;" points="888.201,1696.257 798.402,1697.311 797.935,1548.505 887.923,1547.639 					"/>
					<polygon style="fill:#FFFFFF;" points="1023.845,1694.702 932.804,1695.752 933.407,1547.224 1023.845,1546.362 					"/>
				</g>
				<g>
					<polygon style="fill:#FFFFFF;" points="622.994,1923.782 532.801,1925.128 531.774,1776.709 622.158,1775.55 					"/>
					<polygon style="fill:#FFFFFF;" points="752.468,1921.849 662.606,1923.19 661.854,1775.041 751.905,1773.887 					"/>
					<polygon style="fill:#FFFFFF;" points="888.62,1919.817 799.106,1921.153 798.641,1773.287 888.343,1772.138 					"/>
					<polygon style="fill:#FFFFFF;" points="1023.845,1917.846 933.087,1919.177 933.69,1771.587 1023.845,1770.441 					"/>
				</g>
			</g>
		</g>
		<g>
			<path style="fill:#91B3FA;" d="M2220.041,926.514c-0.129-7.419-3.228-14.477-8.603-19.593
				c-5.375-5.116-12.576-7.862-19.994-7.625l-600.139,19.176c-15.275,0.488-27.272,13.25-26.817,28.526l29.612,993.921
				c0.45,15.083,12.883,27.035,27.972,26.889l588.076-5.719c7.386-0.072,14.439-3.09,19.592-8.384
				c5.152-5.294,7.977-12.426,7.849-19.812L2220.041,926.514z"/>
			<g style="opacity:0.43;">
				<path style="fill:#FFFFFF;" d="M2157.432,975.261h-534.426c-5.198,0-9.369,2.706-9.315,7.635l0.51,46.627
					c0.054,4.95,4.34,10.273,9.553,10.278l535.948,0.423c5.306,0.006,9.413-5.761,9.243-10.756l-1.626-46.451
					C2167.148,978.043,2162.722,975.261,2157.432,975.261z"/>
				<path style="fill:#FFFFFF;" d="M2160.901,1075.678l-536.752-0.893c-5.221-0.009-9.398,4.974-9.345,9.945l0.515,47.683
					c0.054,4.993,4.349,9.727,9.584,9.741l538.287,1.487c5.33,0.015,9.487-4.739,9.315-9.777l-1.64-48.117
					C2170.694,1080.729,2166.215,1075.687,2160.901,1075.678z"/>
				<path style="fill:#FFFFFF;" d="M2164.522,1183.165l-539.18-1.833c-5.244-0.018-9.469,2.405-9.414,7.419l0.519,48.1
					c0.055,5.036,4.358,8.844,9.616,8.867l540.647,2.406c5.353,0.024,9.562-3.781,9.388-8.864l-1.655-48.542
					C2174.271,1185.657,2169.861,1183.183,2164.522,1183.165z"/>
				<path style="fill:#FFFFFF;" d="M2168.054,1287.994l-541.549-2.759c-5.266-0.026-9.499,3.388-9.444,8.447l0.524,48.521
					c0.055,5.081,4.367,7.945,9.647,7.978l543.029,3.341c5.376,0.033,9.637-2.804,9.462-7.932l-1.67-48.973
					C2177.881,1291.512,2173.416,1288.021,2168.054,1287.994z"/>
				<path style="fill:#FFFFFF;" d="M2171.617,1393.744l-543.938-3.701c-5.29-0.036-9.53,4.389-9.474,9.493l0.528,48.949
					c0.056,5.126,4.415,10.68,9.721,10.722l545.514,4.326c5.401,0.043,9.59-5.495,9.414-10.669l-1.685-49.408
					C2181.521,1398.306,2177.002,1393.78,2171.617,1393.744z"/>
				<path style="fill:#FFFFFF;" d="M2175.211,1500.427l-546.348-4.658c-5.313-0.045-9.56,5.407-9.505,10.556l0.533,49.383
					c0.056,5.171,4.424,9.781,9.753,9.832l547.939,5.295c5.425,0.053,9.667-4.516,9.488-9.737l-1.699-49.849
					C2185.195,1506.051,2180.621,1500.473,2175.211,1500.427z"/>
				<path style="fill:#FFFFFF;" d="M2178.963,1611.783l-548.864-5.667c-5.337-0.055-9.632,2.748-9.576,7.942l0.538,49.823
					c0.057,5.217,4.434,8.865,9.785,8.926l550.385,6.281c5.45,0.062,9.744-3.52,9.564-8.787l-1.715-50.298
					C2188.901,1614.761,2184.397,1611.839,2178.963,1611.783z"/>
				<path style="fill:#FFFFFF;" d="M2182.622,1720.404l-551.318-6.659c-5.361-0.064-9.665,3.77-9.608,9.011l0.543,50.268
					c0.057,5.264,4.442,7.933,9.818,8.003l552.852,7.284c5.475,0.072,9.823-2.506,9.642-7.821l-1.73-50.751
					C2192.64,1724.447,2188.081,1720.469,2182.622,1720.404z"/>
				<path style="fill:#FFFFFF;" d="M2186.314,1829.995l-553.794-7.669c-5.385-0.074-9.697,4.81-9.64,10.097l0.548,50.719
					c0.057,5.312,4.493,10.765,9.893,10.847l555.429,8.34c5.501,0.083,9.774-5.291,9.591-10.654l-1.746-51.211
					C2196.414,1835.124,2191.798,1830.07,2186.314,1829.995z"/>
			</g>
		</g>
		<g>
			<g>
				
					<linearGradient id="SVGID_00000136372890206185044750000016988488601334936502_" gradientUnits="userSpaceOnUse" x1="1826.6814" y1="3068.6863" x2="1826.6814" y2="3862.6477">
					<stop  offset="0" style="stop-color:#09005D"/>
					<stop  offset="1" style="stop-color:#1A0F91"/>
				</linearGradient>
				<polygon style="fill:url(#SVGID_00000136372890206185044750000016988488601334936502_);" points="1558.297,2737.157 
					1502.394,3122.942 2150.969,3122.942 2066.491,2737.157 				"/>
				
					<linearGradient id="SVGID_00000039827413745556669030000007950020624778980748_" gradientUnits="userSpaceOnUse" x1="1748.7262" y1="375.8653" x2="1758.8406" y2="1796.9056">
					<stop  offset="0" style="stop-color:#09005D"/>
					<stop  offset="0.1925" style="stop-color:#0C0367"/>
					<stop  offset="1" style="stop-color:#1A0F91"/>
				</linearGradient>
				<path style="fill:url(#SVGID_00000039827413745556669030000007950020624778980748_);" d="M468.805,1501.9v1148.257
					c0,94.459,75.273,171.705,169.701,174.14c419.399,10.814,1886.256,37.038,2285.496,31.153
					c68.619-1.011,124.207-55.923,126.186-124.521c7.699-266.755,20.202-908.214-26.068-1206.018
					c-9.744-62.714-62.68-109.611-126.115-111.64c-351.404-11.242-1906.368-46.938-2305.422-37.976
					C523.76,1376.841,468.805,1433.06,468.805,1501.9z"/>
				<path style="fill:#7D97F4;" d="M540.855,1496.311v1090.923c0,55.151,44.271,100.088,99.415,100.913l2226.295,27.505
					c54.671,0.818,99.486-43.168,99.689-97.845l3.724-1081.176c0.146-39.095-31.001-71.129-70.085-72.08L620.58,1418.502
					C576.866,1417.438,540.855,1452.585,540.855,1496.311z"/>
				<path style="fill:#BDD0FB;" d="M2983.016,2760.363c-0.018,0-0.036,0-0.054,0l-2442.16-41.611
					c-1.705-0.03-3.063-1.435-3.034-3.138c0.029-1.709,1.453-3.009,3.14-3.036l2442.16,41.611c1.705,0.03,3.063,1.435,3.034,3.138
					C2986.073,2759.015,2984.696,2760.363,2983.016,2760.363z"/>
				<g>
					<path style="fill:#BDD0FB;" d="M1786.026,2811.183c-15.712,0-28.496-12.785-28.496-28.498
						c0-15.712,12.784-28.497,28.496-28.497c15.714,0,28.497,12.785,28.497,28.497
						C1814.523,2798.398,1801.739,2811.183,1786.026,2811.183z M1786.026,2760.363c-12.309,0-22.322,10.015-22.322,22.323
						c0,12.309,10.013,22.323,22.322,22.323c12.309,0,22.323-10.015,22.323-22.323
						C1808.349,2770.377,1798.334,2760.363,1786.026,2760.363z"/>
				</g>
				
					<linearGradient id="SVGID_00000069378908938060287060000015501907207611580037_" gradientUnits="userSpaceOnUse" x1="1816.0566" y1="2704.5767" x2="1816.0566" y2="3306.3691">
					<stop  offset="0" style="stop-color:#09005D"/>
					<stop  offset="1" style="stop-color:#1A0F91"/>
				</linearGradient>
				<path style="fill:url(#SVGID_00000069378908938060287060000015501907207611580037_);" d="M2290.672,3225.521h-949.234
					c-25.788,0-45.153-18.358-40.167-38.077l12.18-48.171c3.663-14.486,19.6-25.122,38.53-25.713l915.096-28.555
					c19.776-0.617,37.287,9.881,41.596,24.936l21.958,76.725C2336.335,3206.6,2316.876,3225.521,2290.672,3225.521z"/>
				<path style="fill:#BDD0FB;" d="M1852.428,3126.602c-1.684,0-3.06-1.354-3.086-3.042c-0.024-1.706,1.337-3.108,3.042-3.132
					l39.213-0.573c1.638,0.009,3.107,1.339,3.132,3.042c0.024,1.706-1.337,3.108-3.042,3.132l-39.213,0.573
					C1852.459,3126.602,1852.444,3126.602,1852.428,3126.602z"/>
				<path style="fill:#BDD0FB;" d="M1336.414,3198.957c-0.163,0-0.327-0.012-0.491-0.039c-1.684-0.268-2.831-1.851-2.561-3.533
					l5.595-35.036c3.004-18.823,19.019-32.688,38.081-32.968l415.914-6.084c0.015,0,0.032,0,0.047,0c1.684,0,3.06,1.354,3.085,3.042
					c0.024,1.706-1.337,3.108-3.042,3.132l-415.914,6.083c-16.054,0.235-29.545,11.911-32.076,27.765l-5.595,35.036
					C1339.215,3197.875,1337.904,3198.957,1336.414,3198.957z"/>
			</g>
		</g>
		<g>
			<g>
				
					<linearGradient id="SVGID_00000027575054149695565150000001767361366558224824_" gradientUnits="userSpaceOnUse" x1="1019.6614" y1="912.0944" x2="1164.6381" y2="1953.9065">
					<stop  offset="0" style="stop-color:#09005D"/>
					<stop  offset="1" style="stop-color:#1A0F91"/>
				</linearGradient>
				<path style="fill:url(#SVGID_00000027575054149695565150000001767361366558224824_);" d="M543.437,1325.664l-4.039,64.286
					c-1.353,21.533,11.107,41.555,31.023,49.854l47.205,19.67c12.766,5.319,21.974,16.607,24.937,30.115
					c7.453,33.988,18.741,66.632,33.407,97.428c5.956,12.506,5.615,27.084-1.221,39.132l-25.262,44.523
					c-10.646,18.767-8.216,42.222,6.054,58.405l42.6,48.313c14.27,16.183,37.238,21.532,57.189,13.317l47.336-19.491
					c12.807-5.274,27.314-3.787,38.976,3.687c28.719,18.405,59.693,33.689,92.481,45.339c13.031,4.63,23.075,15.178,26.757,28.509
					l13.606,49.296c5.742,20.799,24.045,35.664,45.579,37.017l64.287,4.039c21.533,1.352,41.554-11.106,49.854-31.022l19.67-47.205
					c5.319-12.766,16.608-21.973,30.116-24.936c33.987-7.454,66.631-18.743,97.425-33.408c12.508-5.955,27.086-5.615,39.134,1.221
					l44.522,25.262c18.766,10.648,42.221,8.217,58.405-6.054l48.313-42.6c16.184-14.27,21.532-37.237,13.318-57.189l-19.49-47.336
					c-5.274-12.808-3.787-27.315,3.687-38.976c18.403-28.719,33.688-59.692,45.338-92.48c4.629-13.032,15.177-23.077,28.508-26.756
					l49.297-13.607c20.799-5.74,35.662-24.045,37.016-45.578l4.039-64.291c1.353-21.533-11.105-41.553-31.018-49.851l-47.208-19.67
					c-12.766-5.319-21.974-16.606-24.937-30.116c-7.453-33.987-18.741-66.631-33.407-97.427
					c-5.953-12.506-5.615-27.085,1.221-39.132l25.261-44.523c10.647-18.766,8.216-42.221-6.054-58.404l-42.599-48.313
					c-14.27-16.183-37.239-21.532-57.189-13.316l-47.335,19.49c-12.807,5.273-27.314,3.786-38.977-3.688
					c-28.719-18.405-59.692-33.691-92.48-45.339c-13.031-4.63-23.079-15.178-26.757-28.51l-13.606-49.297
					c-5.741-20.798-24.045-35.664-45.578-37.017l-64.29-4.04c-21.533-1.353-41.553,11.104-49.851,31.021l-19.671,47.207
					c-5.319,12.766-16.607,21.974-30.115,24.937c-33.987,7.453-66.631,18.741-97.428,33.406c-12.505,5.956-27.085,5.615-39.132-1.22
					l-44.522-25.261c-18.766-10.648-42.222-8.217-58.407,6.053l-48.314,42.603c-16.183,14.269-21.528,37.235-13.315,57.185
					l19.49,47.337c5.275,12.808,3.787,27.316-3.687,38.978c-18.403,28.718-33.688,59.691-45.338,92.478
					c-4.628,13.032-15.177,23.078-28.508,26.758l-49.297,13.606C559.656,1285.825,544.79,1304.129,543.437,1325.664z
					 M716.616,1330.961c33.738-204.254,226.668-342.486,430.924-308.747c204.254,33.738,342.486,226.669,308.747,430.924
					c-33.738,204.255-226.67,342.485-430.924,308.747C821.107,1728.147,682.878,1535.216,716.616,1330.961z"/>
			</g>
			<g>
				<defs>
					<circle id="SVGID_00000074433257797827661070000009251909034106588320_" cx="1089.094" cy="1392.517" r="376.524"/>
				</defs>
				<clipPath id="SVGID_00000105415981701317084530000012990638385065448832_">
					<use xlink:href="#SVGID_00000074433257797827661070000009251909034106588320_"  style="overflow:visible;"/>
				</clipPath>
				<g style="clip-path:url(#SVGID_00000105415981701317084530000012990638385065448832_);">
					
						<linearGradient id="SVGID_00000137112047407463581700000017537052641454913958_" gradientUnits="userSpaceOnUse" x1="1023.0131" y1="1625.5775" x2="2270.6685" y2="1604.7832">
						<stop  offset="0" style="stop-color:#FEBBBA"/>
						<stop  offset="1" style="stop-color:#FF928E"/>
					</linearGradient>
					<path style="fill:url(#SVGID_00000137112047407463581700000017537052641454913958_);" d="M1180.881,1551.491
						c0,0,32.342,165.609,44.107,165.609c11.765,0,229.625-26.09,229.625-26.09v-47.212l-172.273,6.335l-41.567-123.076
						L1180.881,1551.491z"/>
					
						<linearGradient id="SVGID_00000126305476048653161040000005086460117620370832_" gradientUnits="userSpaceOnUse" x1="1577.1375" y1="765.9505" x2="1405.1968" y2="1008.6904">
						<stop  offset="0" style="stop-color:#FF928E"/>
						<stop  offset="1" style="stop-color:#FE7062"/>
					</linearGradient>
					<path style="fill:url(#SVGID_00000126305476048653161040000005086460117620370832_);" d="M1139.932,1732.181H849.437
						l17.647-207.086c0,0-21.719-155.957,77.375-173.188c58.37-15.874,58.37-16.063,58.37-16.063s74.66-11.784,137.103,15.78
						c62.443,27.564,114.026,193.126,114.026,193.126l-74.66,29.84l-19.004-60.344L1139.932,1732.181z"/>
					
						<linearGradient id="SVGID_00000157290185299845510710000016762460872558656901_" gradientUnits="userSpaceOnUse" x1="926.9214" y1="1969.7532" x2="834.0742" y2="2370.9856" gradientTransform="matrix(0.9877 0.1565 -0.1565 0.9877 483.848 -874.1677)">
						<stop  offset="0" style="stop-color:#FEBBBA"/>
						<stop  offset="1" style="stop-color:#FF928E"/>
					</linearGradient>
					<path style="fill:url(#SVGID_00000157290185299845510710000016762460872558656901_);" d="M1016.919,1236.299l-29.573,113.561
						c0,0,61.794,29.83,114.269,4.009l-16.563-110.095L1016.919,1236.299z"/>
					
						<linearGradient id="SVGID_00000118381817982028656270000011779915190087904675_" gradientUnits="userSpaceOnUse" x1="1214.572" y1="2425.0891" x2="1026.4017" y2="2569.0681" gradientTransform="matrix(0.9382 0.346 -0.346 0.9382 839.0766 -1485.998)">
						<stop  offset="0" style="stop-color:#FEBBBA"/>
						<stop  offset="1" style="stop-color:#FF928E"/>
					</linearGradient>
					<path style="fill:url(#SVGID_00000118381817982028656270000011779915190087904675_);" d="M1156.063,1144.634
						c0,0,4.718,82.329-6.94,120.328c-11.658,37.999-12.545,65.119-58.363,56.739c-45.818-8.38-74.176-43.203-80.146-87.538
						c0,0-9.708-68.504,5.83-89.363C1031.982,1123.941,1156.063,1144.634,1156.063,1144.634z"/>
					
						<linearGradient id="SVGID_00000168833214035592613440000006493511551357475745_" gradientUnits="userSpaceOnUse" x1="1082.1095" y1="2311.0901" x2="1257.3586" y2="2536.7229" gradientTransform="matrix(0.9382 0.346 -0.346 0.9382 839.0766 -1485.998)">
						<stop  offset="0" style="stop-color:#09005D"/>
						<stop  offset="1" style="stop-color:#1A0F91"/>
					</linearGradient>
					<path style="fill:url(#SVGID_00000168833214035592613440000006493511551357475745_);" d="M1035.161,1212.92l2.849-0.177
						c3.628-0.224,6.331-3.446,5.881-7.052c-1.745-13.969-3.667-45.214,13.935-45.845c22.684-0.814,106.605,12.055,133.658-9.43
						c26.001-20.648,24.332-60.295,6.385-78.016c-1.201-1.186-3.093-1.294-4.349-0.167l-3.05,2.736
						c-2.087,1.873-5.393,0.254-5.192-2.544c0.192-2.686-2.861-4.347-4.99-2.698c-8.232,6.377-27.161,14.655-67.077,7.77
						c-56.728-9.786-99.77-1.242-114.179,35.136c-0.915,2.311-3.874,2.693-5.418,0.745c-3.04-3.836-8.902-7.272-19.891-3.313
						c-19.109,6.885-24.874,40.903-2.55,78.867c1.06,1.803,0.173,4.171-1.866,4.634c-7.189,1.636-19.142,7.427-1.165,27.655
						c18.595,20.922,36.264,26.285,43.329,27.642c1.758,0.337,3.417-0.873,3.66-2.646l4.789-34.879
						c0.271-1.974,2.299-3.191,4.168-2.501L1035.161,1212.92z"/>
					
						<linearGradient id="SVGID_00000037670523274422467430000001521202435885994167_" gradientUnits="userSpaceOnUse" x1="1191.2319" y1="2394.5847" x2="1003.062" y2="2538.5635" gradientTransform="matrix(0.9382 0.346 -0.346 0.9382 839.0766 -1485.998)">
						<stop  offset="0" style="stop-color:#FEBBBA"/>
						<stop  offset="1" style="stop-color:#FF928E"/>
					</linearGradient>
					<path style="fill:url(#SVGID_00000037670523274422467430000001521202435885994167_);" d="M1033.988,1220.22
						c0,0,4.931-49.661-20.071-44.448c-25.003,5.213-8.183,54.662,7.526,62.382L1033.988,1220.22z"/>
					<g>
						<g>
							<g>
								
									<linearGradient id="SVGID_00000056420402593347150230000010835835454438834565_" gradientUnits="userSpaceOnUse" x1="1007.7048" y1="1285.2808" x2="1087.7944" y2="1230.9828">
									<stop  offset="0" style="stop-color:#4F52FF"/>
									<stop  offset="1" style="stop-color:#4042E2"/>
								</linearGradient>
								<path style="fill:url(#SVGID_00000056420402593347150230000010835835454438834565_);" d="M1095.849,1283.385
									c-53.177-5.043-74.375-64.56-74.583-65.162l3.848-1.332c0.2,0.575,20.573,57.647,71.119,62.44L1095.849,1283.385z"/>
							</g>
							<path style="fill:#4170FA;" d="M1114.138,1287.461h-26.26c-1.047,0-1.903-0.857-1.903-1.904v-9.938
								c0-1.047,0.857-1.903,1.903-1.903h26.26c1.047,0,1.903,0.856,1.903,1.903v9.938
								C1116.042,1286.604,1115.185,1287.461,1114.138,1287.461z"/>
						</g>
						<g>
							
								<linearGradient id="SVGID_00000021820027845031763830000005243374997413158543_" gradientUnits="userSpaceOnUse" x1="1143.2845" y1="915.3835" x2="1500.6705" y2="-82.5979">
								<stop  offset="0" style="stop-color:#4F52FF"/>
								<stop  offset="1" style="stop-color:#4042E2"/>
							</linearGradient>
							<path style="fill:url(#SVGID_00000021820027845031763830000005243374997413158543_);" d="M1034.382,1158.995
								c0,0,33.358-80.601,87.1-80.249c0,0-13.524-9.157-30.343-4.176c-16.818,4.981-63.424,39.436-70.211,84.425
								C1030.883,1164.165,1034.382,1158.995,1034.382,1158.995z"/>
							
								<linearGradient id="SVGID_00000078748154208635004820000009267599051378271885_" gradientUnits="userSpaceOnUse" x1="1103.5259" y1="1103.359" x2="974.2825" y2="1251.7076">
								<stop  offset="0" style="stop-color:#4F52FF"/>
								<stop  offset="1" style="stop-color:#4042E2"/>
							</linearGradient>
							<path style="fill:url(#SVGID_00000078748154208635004820000009267599051378271885_);" d="M1026.358,1152.401
								c-29.864,0.905-32.579,38.009-32.579,38.009c-6.624,26.128-1.147,40.583,7.685,48.539c6.034,5.435,14.484,7.293,22.248,4.913
								c7.764-2.38,13.712-8.655,15.671-16.536c1.77-7.116,3.555-13.863,4.508-16.205
								C1046.199,1205.447,1056.222,1151.495,1026.358,1152.401z"/>
						</g>
						
							<linearGradient id="SVGID_00000098932376851108446100000005882535485491980933_" gradientUnits="userSpaceOnUse" x1="1129.1454" y1="1035.5907" x2="1425.8424" y2="604.0311">
							<stop  offset="0" style="stop-color:#4F52FF"/>
							<stop  offset="1" style="stop-color:#4042E2"/>
						</linearGradient>
						<path style="fill:url(#SVGID_00000098932376851108446100000005882535485491980933_);" d="M1027.426,1162.084
							c-5.812-2.07-12.267,0.1-15.635,5.269c-24.104,36.996-7.387,66.62,2.916,68.946c10.86,2.452,19.683-50.302,19.676-64.216
							C1034.379,1166.253,1031.162,1163.414,1027.426,1162.084z"/>
					</g>
					
						<linearGradient id="SVGID_00000023266195347759378850000013644145928353520318_" gradientUnits="userSpaceOnUse" x1="1362.3418" y1="1740.4858" x2="224.744" y2="1753.2867">
						<stop  offset="0" style="stop-color:#4F52FF"/>
						<stop  offset="1" style="stop-color:#4042E2"/>
					</linearGradient>
					<path style="fill:url(#SVGID_00000023266195347759378850000013644145928353520318_);" d="M1422.165,1715.383l-745.344,6.151
						c-3.052,0.025-5.826,6.487-6.195,14.444l-1.135,24.483c-0.371,8.01,1.817,14.477,4.886,14.433l749.247-10.783
						c2.561-0.037,4.456-5.996,4.234-13.299l-0.679-22.33C1426.958,1721.222,1424.714,1715.362,1422.165,1715.383z"/>
					
						<linearGradient id="SVGID_00000136406185569895857740000009934909775790133693_" gradientUnits="userSpaceOnUse" x1="1166.8223" y1="1694.7246" x2="1260.745" y2="1694.7246">
						<stop  offset="0" style="stop-color:#09005D"/>
						<stop  offset="1" style="stop-color:#1A0F91"/>
					</linearGradient>
					<path style="fill:url(#SVGID_00000136406185569895857740000009934909775790133693_);" d="M1167.081,1716.484h93.664
						c0,0-21.267-45.701-60.18-43.438C1161.651,1675.308,1167.081,1716.484,1167.081,1716.484z"/>
					
						<linearGradient id="SVGID_00000169518915502580433910000003204031041204608691_" gradientUnits="userSpaceOnUse" x1="719.183" y1="1643.9891" x2="2236.4109" y2="1618.7019">
						<stop  offset="0" style="stop-color:#FEBBBA"/>
						<stop  offset="1" style="stop-color:#FF928E"/>
					</linearGradient>
					<path style="fill:url(#SVGID_00000169518915502580433910000003204031041204608691_);" d="M911.743,1588.821l65.155-29.983
						l57.605,101.25c0,0,162.894-25.339,191.853,5.43c28.959,30.769,15.384,30.317,11.765,30.317s-20.362-18.099-20.362-18.099
						s14.677,22.084,6.787,23.077c-7.889,0.993-27.149-19.909-27.149-19.909s15.837,27.602,6.335,24.434
						c-9.502-3.167-17.194-18.099-17.194-18.099s12.67,17.701,4.072,18.352c-8.597,0.652-21.719-14.579-21.719-14.579
						s-20.135,9.122-31.674,9.122s-127.827,29.036-148.867,16.968C967.309,1705.033,911.743,1588.821,911.743,1588.821z"/>
					<g>
						
							<linearGradient id="SVGID_00000183209032562856470410000013002988792442244504_" gradientUnits="userSpaceOnUse" x1="1075.8035" y1="1171.1843" x2="886.9962" y2="1751.092">
							<stop  offset="0" style="stop-color:#E1473D"/>
							<stop  offset="1" style="stop-color:#E9605A"/>
						</linearGradient>
						<path style="fill:url(#SVGID_00000183209032562856470410000013002988792442244504_);" d="M976.898,1560.196
							c-0.413,0-0.82-0.187-1.087-0.543c-0.451-0.599-0.329-1.45,0.27-1.9l12.006-9.008l-38.571-106.746
							c-0.254-0.705,0.11-1.483,0.815-1.738c0.705-0.255,1.482,0.11,1.738,0.815l38.913,107.691
							c0.203,0.561,0.016,1.189-0.461,1.547l-12.811,9.61C977.467,1560.107,977.182,1560.196,976.898,1560.196z"/>
					</g>
					<g>
						
							<linearGradient id="SVGID_00000114063725967851131790000015316135806360547220_" gradientUnits="userSpaceOnUse" x1="1021.3521" y1="1153.4569" x2="832.5445" y2="1733.3655">
							<stop  offset="0" style="stop-color:#E1473D"/>
							<stop  offset="1" style="stop-color:#E9605A"/>
						</linearGradient>
						<path style="fill:url(#SVGID_00000114063725967851131790000015316135806360547220_);" d="M905.546,1584.522
							c-0.435,0-0.862-0.208-1.124-0.595l-32.579-47.963c-0.422-0.619-0.26-1.464,0.361-1.885c0.619-0.423,1.464-0.261,1.885,0.361
							l32.579,47.963c0.421,0.619,0.26,1.463-0.361,1.885C906.073,1584.447,905.808,1584.522,905.546,1584.522z"/>
					</g>
				</g>
			</g>
		</g>
		<g>
			<g>
				<g>
					
						<linearGradient id="SVGID_00000106847172691835892560000004618751255728337063_" gradientUnits="userSpaceOnUse" x1="684.6418" y1="2129.8276" x2="1414.9454" y2="2129.8276">
						<stop  offset="0" style="stop-color:#4F52FF"/>
						<stop  offset="1" style="stop-color:#4042E2"/>
					</linearGradient>
					<path style="fill:url(#SVGID_00000106847172691835892560000004618751255728337063_);" d="M1372.962,1983.357H726.851
						c-11.738,0-22.947,5.785-30.934,16.337c-7.986,10.55-12.03,24.599-11.159,38.955l11.511,189.749
						c1.682,27.744,20.946,48.87,43.616,47.866l634.487-28.117c22.704-1.006,40.574-23.883,40.574-51.746v-161.697
						C1414.945,2006.115,1396.273,1983.357,1372.962,1983.357z"/>
					<g>
						
							<linearGradient id="SVGID_00000023996449515133341100000012938542862342312894_" gradientUnits="userSpaceOnUse" x1="777.0815" y1="1981.2449" x2="770.3384" y2="2203.7678">
							<stop  offset="0" style="stop-color:#FEBBBA"/>
							<stop  offset="1" style="stop-color:#FF928E"/>
						</linearGradient>
						<path style="fill:url(#SVGID_00000023996449515133341100000012938542862342312894_);" d="M804.889,2214.984l-25.92-11.197
							c-2.016-0.871-4.331-0.694-6.191,0.473l-23.918,15.006c-4.684,2.938-10.704-0.77-10.188-6.275l2.639-28.111
							c0.205-2.187-0.679-4.334-2.363-5.742l-21.662-18.111c-4.242-3.546-2.576-10.418,2.819-11.628l27.552-6.177
							c2.142-0.48,3.912-1.984,4.731-4.022l10.53-26.198c2.062-5.13,9.112-5.669,11.93-0.912l14.389,24.294
							c1.119,1.889,3.096,3.107,5.287,3.257l28.17,1.919c5.517,0.376,8.208,6.915,4.554,11.065l-18.659,21.192
							c-1.451,1.648-1.998,3.905-1.463,6.034l6.879,27.385C815.352,2212.596,809.965,2217.176,804.889,2214.984z"/>
					</g>
					<g>
						
							<linearGradient id="SVGID_00000098915853793167846840000001524688756602391208_" gradientUnits="userSpaceOnUse" x1="912.4581" y1="1985.348" x2="905.715" y2="2207.8708">
							<stop  offset="0" style="stop-color:#FEBBBA"/>
							<stop  offset="1" style="stop-color:#FF928E"/>
						</linearGradient>
						<path style="fill:url(#SVGID_00000098915853793167846840000001524688756602391208_);" d="M940.389,2214.984l-25.92-11.197
							c-2.016-0.871-4.331-0.694-6.191,0.473l-23.918,15.006c-4.684,2.938-10.704-0.77-10.188-6.275l2.639-28.111
							c0.205-2.187-0.679-4.334-2.363-5.742l-21.662-18.111c-4.242-3.546-2.576-10.418,2.819-11.628l27.551-6.177
							c2.142-0.48,3.911-1.984,4.731-4.022L898.417,2113c2.062-5.13,9.112-5.669,11.93-0.912l14.389,24.294
							c1.119,1.889,3.096,3.107,5.287,3.257l28.17,1.919c5.517,0.376,8.208,6.915,4.554,11.065l-18.658,21.192
							c-1.451,1.648-1.998,3.905-1.463,6.034l6.879,27.385C950.853,2212.596,945.466,2217.176,940.389,2214.984z"/>
					</g>
					<g>
						
							<linearGradient id="SVGID_00000178170516184214630950000009143641758377540239_" gradientUnits="userSpaceOnUse" x1="1056.5859" y1="1989.7157" x2="1049.8429" y2="2212.2388">
							<stop  offset="0" style="stop-color:#FEBBBA"/>
							<stop  offset="1" style="stop-color:#FF928E"/>
						</linearGradient>
						<path style="fill:url(#SVGID_00000178170516184214630950000009143641758377540239_);" d="M1084.649,2214.984l-25.92-11.197
							c-2.016-0.871-4.331-0.694-6.191,0.473l-23.918,15.006c-4.684,2.938-10.704-0.77-10.187-6.275l2.639-28.111
							c0.205-2.187-0.678-4.334-2.363-5.742l-21.662-18.111c-4.242-3.546-2.576-10.418,2.819-11.628l27.552-6.177
							c2.142-0.48,3.911-1.984,4.731-4.022l10.531-26.198c2.062-5.13,9.112-5.669,11.93-0.912l14.389,24.294
							c1.119,1.889,3.096,3.107,5.287,3.257l28.17,1.919c5.517,0.376,8.208,6.915,4.553,11.065l-18.658,21.192
							c-1.451,1.648-1.998,3.905-1.463,6.034l6.879,27.385C1095.113,2212.596,1089.726,2217.176,1084.649,2214.984z"/>
					</g>
					<g>
						
							<linearGradient id="SVGID_00000134956573934411981000000006710736520469015964_" gradientUnits="userSpaceOnUse" x1="1195.9673" y1="1993.9387" x2="1189.2242" y2="2216.4617">
							<stop  offset="0" style="stop-color:#FEBBBA"/>
							<stop  offset="1" style="stop-color:#FF928E"/>
						</linearGradient>
						<path style="fill:url(#SVGID_00000134956573934411981000000006710736520469015964_);" d="M1224.159,2214.984l-25.92-11.197
							c-2.016-0.871-4.331-0.694-6.191,0.473l-23.918,15.006c-4.684,2.938-10.704-0.77-10.188-6.275l2.639-28.111
							c0.205-2.187-0.678-4.334-2.363-5.742l-21.662-18.111c-4.242-3.546-2.576-10.418,2.819-11.628l27.552-6.177
							c2.142-0.48,3.911-1.984,4.731-4.022l10.531-26.198c2.062-5.13,9.112-5.669,11.93-0.912l14.389,24.294
							c1.119,1.889,3.096,3.107,5.287,3.257l28.17,1.919c5.517,0.376,8.208,6.915,4.553,11.065l-18.658,21.192
							c-1.451,1.648-1.998,3.905-1.463,6.034l6.879,27.385C1234.622,2212.596,1229.235,2217.176,1224.159,2214.984z"/>
					</g>
					<g>
						
							<linearGradient id="SVGID_00000160871676110803501120000011459709626988299433_" gradientUnits="userSpaceOnUse" x1="1338.9893" y1="1998.2728" x2="1332.2461" y2="2220.7959">
							<stop  offset="0" style="stop-color:#FEBBBA"/>
							<stop  offset="1" style="stop-color:#FF928E"/>
						</linearGradient>
						<path style="fill:url(#SVGID_00000160871676110803501120000011459709626988299433_);" d="M1367.312,2214.984l-25.92-11.197
							c-2.016-0.871-4.331-0.694-6.191,0.473l-23.918,15.006c-4.684,2.938-10.704-0.77-10.188-6.275l2.639-28.111
							c0.205-2.187-0.678-4.334-2.363-5.742l-21.662-18.111c-4.242-3.546-2.576-10.418,2.819-11.628l27.552-6.177
							c2.142-0.48,3.911-1.984,4.731-4.022l10.53-26.198c2.062-5.13,9.112-5.669,11.93-0.912l14.389,24.294
							c1.119,1.889,3.096,3.107,5.287,3.257l28.17,1.919c5.517,0.376,8.208,6.915,4.553,11.065l-18.658,21.192
							c-1.451,1.648-1.998,3.905-1.463,6.034l6.879,27.385C1377.776,2212.596,1372.389,2217.176,1367.312,2214.984z"/>
					</g>
					<path style="opacity:0.7;fill:#FFFFFF;" d="M1361,2050.401c0,12.122-8.83,20.616-19.722,20.616H810.93
						c-10.892,0-19.722-8.494-19.722-20.616v-1.128c0-12.123,8.83-22.086,19.722-22.086h530.348
						c10.892,0,19.722,9.963,19.722,22.086V2050.401z"/>
				</g>
			</g>
		</g>
		<g>
			<g>
				<g style="opacity:0.7;">
					<path style="fill:#FFFFFF;" d="M2830.196,1725.686h-972.478c-6.6,0-12-5.4-12-12v-192.033c0-6.6,5.4-12,12-12h972.478
						c6.6,0,12,5.4,12,12v192.033C2842.196,1720.286,2836.796,1725.686,2830.196,1725.686z"/>
					<polygon style="fill:#FFFFFF;" points="2620.204,1718.147 2666.727,1792.057 2709.568,1714.519 					"/>
				</g>
				
					<ellipse transform="matrix(0.7071 -0.7071 0.7071 0.7071 -566.996 1875.9874)" style="fill:#FFFFFF;" cx="1981.019" cy="1622.418" rx="86.608" ry="86.608"/>
				<g>
					
						<linearGradient id="SVGID_00000101810682888091864790000006706299043696809640_" gradientUnits="userSpaceOnUse" x1="2024.0624" y1="1045.1377" x2="2061.1494" y2="579.8624">
						<stop  offset="0" style="stop-color:#4F52FF"/>
						<stop  offset="1" style="stop-color:#4042E2"/>
					</linearGradient>
					<path style="fill:url(#SVGID_00000101810682888091864790000006706299043696809640_);" d="M2007.365,1589.56
						c0,14.84-11.869,30.503-26.552,30.061c-14.73-0.444-26.705-16.917-26.705-31.843c0-14.924,11.975-25.079,26.705-24.546
						C1995.496,1563.764,2007.365,1574.721,2007.365,1589.56z"/>
					
						<linearGradient id="SVGID_00000120536385411775338340000008991447234335427742_" gradientUnits="userSpaceOnUse" x1="2028.6033" y1="1045.5002" x2="2065.6902" y2="580.2258">
						<stop  offset="0" style="stop-color:#4F52FF"/>
						<stop  offset="1" style="stop-color:#4042E2"/>
					</linearGradient>
					<path style="fill:url(#SVGID_00000120536385411775338340000008991447234335427742_);" d="M1947.648,1676.124l65.013,1.557
						c6.791,0.163,12.795-4.147,14.86-10.658l3.461-10.917c2.534-7.987-1.585-16.825-9.402-19.952
						c-26.297-10.521-53.647-10.072-81.832-1.423c-7.927,2.433-12.33,10.856-10.141,19.04l2.723,10.171
						C1934.208,1670.962,1940.489,1675.952,1947.648,1676.124z"/>
				</g>
			</g>
			<g>
				<g style="opacity:0.7;">
					<path style="fill:#FFFFFF;" d="M2847.056,2324.214h-972.478c-6.6,0-12-5.4-12-12v-192.033c0-6.6,5.4-12,12-12h972.478
						c6.6,0,12,5.4,12,12v192.033C2859.056,2318.814,2853.656,2324.214,2847.056,2324.214z"/>
					<polygon style="fill:#FFFFFF;" points="2637.064,2316.675 2683.587,2390.585 2726.428,2313.047 					"/>
				</g>
				
					<ellipse transform="matrix(0.7071 -0.7071 0.7071 0.7071 -985.2808 2063.2139)" style="fill:#FFFFFF;" cx="1997.879" cy="2220.946" rx="86.608" ry="86.608"/>
				<g>
					
						<linearGradient id="SVGID_00000072993099039961033120000015502109431638832537_" gradientUnits="userSpaceOnUse" x1="2088.2234" y1="1050.2504" x2="2125.3103" y2="584.975">
						<stop  offset="0" style="stop-color:#4F52FF"/>
						<stop  offset="1" style="stop-color:#4042E2"/>
					</linearGradient>
					<path style="fill:url(#SVGID_00000072993099039961033120000015502109431638832537_);" d="M2024.225,2188.088
						c0,14.84-11.869,30.503-26.552,30.061c-14.73-0.444-26.705-16.917-26.705-31.843c0-14.924,11.975-25.079,26.705-24.546
						C2012.356,2162.291,2024.225,2173.249,2024.225,2188.088z"/>
					
						<linearGradient id="SVGID_00000088813628157326555840000013530791929139202952_" gradientUnits="userSpaceOnUse" x1="2092.7639" y1="1050.6152" x2="2129.8511" y2="585.3408">
						<stop  offset="0" style="stop-color:#4F52FF"/>
						<stop  offset="1" style="stop-color:#4042E2"/>
					</linearGradient>
					<path style="fill:url(#SVGID_00000088813628157326555840000013530791929139202952_);" d="M1964.508,2274.652l65.013,1.557
						c6.791,0.163,12.795-4.147,14.86-10.658l3.461-10.917c2.534-7.987-1.585-16.825-9.403-19.952
						c-26.297-10.521-53.647-10.072-81.832-1.423c-7.927,2.433-12.33,10.856-10.141,19.04l2.723,10.171
						C1951.068,2269.49,1957.349,2274.48,1964.508,2274.652z"/>
				</g>
			</g>
			<g>
				<g style="opacity:0.7;">
					<path style="fill:#FFFFFF;" d="M1874.578,2023.545h972.478c6.6,0,12-5.4,12-12v-192.033c0-6.6-5.4-12-12-12h-972.478
						c-6.6,0-12,5.4-12,12v192.033C1862.578,2018.145,1867.978,2023.545,1874.578,2023.545z"/>
					<polygon style="fill:#FFFFFF;" points="2084.57,2016.006 2038.047,2089.916 1995.206,2012.378 					"/>
				</g>
				
					<ellipse transform="matrix(0.7071 -0.7071 0.7071 0.7071 -560.0718 2488.4216)" style="fill:#FFFFFF;" cx="2723.755" cy="1920.277" rx="86.608" ry="86.608"/>
				<g>
					
						<linearGradient id="SVGID_00000038375298362031340860000000738602638975029681_" gradientUnits="userSpaceOnUse" x1="2786.2637" y1="1105.894" x2="2823.3508" y2="640.6187">
						<stop  offset="0" style="stop-color:#4F52FF"/>
						<stop  offset="1" style="stop-color:#4042E2"/>
					</linearGradient>
					<path style="fill:url(#SVGID_00000038375298362031340860000000738602638975029681_);" d="M2697.409,1887.419
						c0,14.84,11.869,30.503,26.552,30.061c14.73-0.444,26.705-16.917,26.705-31.843c0-14.924-11.975-25.079-26.705-24.546
						C2709.278,1861.622,2697.409,1872.58,2697.409,1887.419z"/>
					
						<linearGradient id="SVGID_00000170970732126908680840000007533415337561617577_" gradientUnits="userSpaceOnUse" x1="2791.5002" y1="1106.3071" x2="2828.5872" y2="641.032">
						<stop  offset="0" style="stop-color:#4F52FF"/>
						<stop  offset="1" style="stop-color:#4042E2"/>
					</linearGradient>
					<path style="fill:url(#SVGID_00000170970732126908680840000007533415337561617577_);" d="M2757.126,1973.983l-65.013,1.557
						c-6.791,0.163-12.795-4.147-14.86-10.658l-3.461-10.917c-2.534-7.987,1.585-16.825,9.403-19.952
						c26.297-10.521,53.647-10.072,81.832-1.423c7.927,2.433,12.331,10.856,10.141,19.04l-2.723,10.171
						C2770.566,1968.821,2764.285,1973.811,2757.126,1973.983z"/>
				</g>
			</g>
			<g>
				<g style="opacity:0.7;">
					<path style="fill:#FFFFFF;" d="M1885.818,2616.453h972.478c6.6,0,12-5.4,12-12V2412.42c0-6.6-5.4-12-12-12h-972.478
						c-6.6,0-12,5.4-12,12v192.033C1873.818,2611.053,1879.218,2616.453,1885.818,2616.453z"/>
					<polygon style="fill:#FFFFFF;" points="2095.81,2608.914 2049.287,2682.823 2006.446,2605.286 					"/>
				</g>
				
					<ellipse transform="matrix(0.7071 -0.7071 0.7071 0.7071 -976.0288 2670.0283)" style="fill:#FFFFFF;" cx="2734.995" cy="2513.185" rx="86.608" ry="86.608"/>
				<g>
					
						<linearGradient id="SVGID_00000042006365593595842900000012716376002395095426_" gradientUnits="userSpaceOnUse" x1="2844.395" y1="1110.5253" x2="2881.4822" y2="645.2499">
						<stop  offset="0" style="stop-color:#4F52FF"/>
						<stop  offset="1" style="stop-color:#4042E2"/>
					</linearGradient>
					<path style="fill:url(#SVGID_00000042006365593595842900000012716376002395095426_);" d="M2708.649,2480.327
						c0,14.84,11.869,30.503,26.552,30.061c14.73-0.444,26.705-16.917,26.705-31.843c0-14.924-11.975-25.079-26.705-24.546
						C2720.518,2454.53,2708.649,2465.488,2708.649,2480.327z"/>
					
						<linearGradient id="SVGID_00000140707244707731930370000005308596146426443921_" gradientUnits="userSpaceOnUse" x1="2849.6294" y1="1110.9646" x2="2886.7163" y2="645.6896">
						<stop  offset="0" style="stop-color:#4F52FF"/>
						<stop  offset="1" style="stop-color:#4042E2"/>
					</linearGradient>
					<path style="fill:url(#SVGID_00000140707244707731930370000005308596146426443921_);" d="M2768.366,2566.89l-65.013,1.557
						c-6.791,0.163-12.795-4.147-14.86-10.658l-3.461-10.917c-2.534-7.987,1.585-16.825,9.402-19.952
						c26.297-10.521,53.648-10.072,81.833-1.423c7.927,2.433,12.331,10.855,10.141,19.04l-2.723,10.171
						C2781.806,2561.729,2775.525,2566.719,2768.366,2566.89z"/>
				</g>
			</g>
		</g>
		<g>
			<g>
				<g>
					
						<linearGradient id="SVGID_00000168806534718195717750000003819666062315742338_" gradientUnits="userSpaceOnUse" x1="-4164.5317" y1="3247.0864" x2="-4000.9187" y2="3247.0864" gradientTransform="matrix(-1 0 0 1 -1234.118 0)">
						<stop  offset="0" style="stop-color:#4F52FF"/>
						<stop  offset="1" style="stop-color:#4042E2"/>
					</linearGradient>
					<path style="fill:url(#SVGID_00000168806534718195717750000003819666062315742338_);" d="M2771.421,3239.173
						c28.029,2.423,76.675,6.358,115.025,8.046c23.053,1.015,36.325-1.243,43.969-4.303c-0.013,0.862-0.037,1.676-0.071,2.432
						c-0.181,4.035-3.461,7.264-7.536,7.491c-72.464,4.045-130.095,1.4-150.612,0.151c-4.242-0.259-6.771-4.869-4.601-8.486
						C2768.679,3242.697,2769.993,3240.925,2771.421,3239.173z"/>
					
						<linearGradient id="SVGID_00000051344477405951365980000017216890332925613724_" gradientUnits="userSpaceOnUse" x1="-4164.541" y1="3215.0203" x2="-4005.5388" y2="3215.0203" gradientTransform="matrix(-1 0 0 1 -1234.118 0)">
						<stop  offset="0" style="stop-color:#09005D"/>
						<stop  offset="1" style="stop-color:#1A0F91"/>
					</linearGradient>
					<path style="fill:url(#SVGID_00000051344477405951365980000017216890332925613724_);" d="M2886.445,3247.219
						c-38.35-1.688-86.996-5.623-115.025-8.046c27.557-33.81,115.025-56.597,115.025-56.597h24.703
						c16.991,24.492,19.451,47.81,19.265,60.341C2922.77,3245.976,2909.498,3248.234,2886.445,3247.219z"/>
					
						<linearGradient id="SVGID_00000060712726772603212420000017972427556753189523_" gradientUnits="userSpaceOnUse" x1="-4149.4263" y1="3170.2517" x2="-4103.3403" y2="3170.2517" gradientTransform="matrix(-1 0 0 1 -1234.118 0)">
						<stop  offset="0" style="stop-color:#FEBBBA"/>
						<stop  offset="1" style="stop-color:#FF928E"/>
					</linearGradient>
					<path style="fill:url(#SVGID_00000060712726772603212420000017972427556753189523_);" d="M2915.308,3142.246l-2.312,45.747
						c-0.25,4.954-3.958,9.117-8.92,9.826c-4.936,0.706-11.547,0.796-18.557-1.538c-4.312-1.436-7.515-5.069-8.31-9.502
						l-7.988-44.533H2915.308z"/>
				</g>
				<g>
					<g>
						
							<linearGradient id="SVGID_00000149354184431290861280000017557513788085845122_" gradientUnits="userSpaceOnUse" x1="-4490.7085" y1="3243.5579" x2="-4428.0093" y2="3243.5579" gradientTransform="matrix(-1 0 0 1 -1234.118 0)">
							<stop  offset="0" style="stop-color:#4F52FF"/>
							<stop  offset="1" style="stop-color:#4042E2"/>
						</linearGradient>
						<path style="fill:url(#SVGID_00000149354184431290861280000017557513788085845122_);" d="M3236.174,3246.876
							c12.155-1.695,17.655-8.01,19.96-14.76c0.015,0.061,0.031,0.121,0.046,0.182c1.788,7.121-2.357,14.501-10.646,18.01
							c-10.018,4.242-20.971,4.965-29.474,4.615c-9.123-0.376-17.497-4.151-22.1-10.193l-0.069-0.091
							C3203.049,3249.169,3215.903,3249.703,3236.174,3246.876z"/>
						
							<linearGradient id="SVGID_00000122678486690443374960000005236270510740514947_" gradientUnits="userSpaceOnUse" x1="-4490.2524" y1="3195.2813" x2="-4398.2222" y2="3195.2813" gradientTransform="matrix(-1 0 0 1 -1234.118 0)">
							<stop  offset="0" style="stop-color:#09005D"/>
							<stop  offset="1" style="stop-color:#1A0F91"/>
						</linearGradient>
						<path style="fill:url(#SVGID_00000122678486690443374960000005236270510740514947_);" d="M3178.865,3141.952h20.372
							c31.031-0.634,50.518,64.817,56.897,90.163c-2.306,6.75-7.805,13.065-19.96,14.76c-20.271,2.827-33.125,2.294-42.283-2.237
							c-16.765-22.062-25.076-54.373-29.072-73.229C3160.275,3149.963,3178.865,3141.952,3178.865,3141.952z"/>
					</g>
					
						<linearGradient id="SVGID_00000060735933601336536550000005372175077269653125_" gradientUnits="userSpaceOnUse" x1="-4442.4165" y1="3131.8323" x2="-4387.3384" y2="3131.8323" gradientTransform="matrix(-1 0 0 1 -1234.118 0)">
						<stop  offset="0" style="stop-color:#FEBBBA"/>
						<stop  offset="1" style="stop-color:#FF928E"/>
					</linearGradient>
					<path style="fill:url(#SVGID_00000060735933601336536550000005372175077269653125_);" d="M3196.619,3099.492l11.313,44.994
						c1.387,5.517-1.253,11.223-6.354,13.84c-6.328,3.248-15.238,6.66-23.427,5.672c-3.851-0.465-7.05-3.177-8.322-6.803
						l-16.608-47.338L3196.619,3099.492z"/>
				</g>
				
					<linearGradient id="SVGID_00000019649986977167389720000002416470965262452630_" gradientUnits="userSpaceOnUse" x1="3458.8242" y1="2354.4563" x2="3267.769" y2="2545.5112">
					<stop  offset="0" style="stop-color:#4F52FF"/>
					<stop  offset="1" style="stop-color:#4042E2"/>
				</linearGradient>
				<path style="fill:url(#SVGID_00000019649986977167389720000002416470965262452630_);" d="M3210.113,3112.497
					c-14.075,12.485-59.854,14.133-59.854,14.133c-164.905-395.789-232.363-452.017-232.363-452.017
					c23.811,149.389,3.839,480.117,3.839,480.117c-27.212,12.008-62.296,0-62.296,0c-2.21-244.57-39.802-457.858-84.21-626.01
					c111.456-2.505,170.728-40.645,190.081-55.953C3058.216,2622.552,3210.113,3112.497,3210.113,3112.497z"/>
				
					<linearGradient id="SVGID_00000077313777713852474430000012012992289051630742_" gradientUnits="userSpaceOnUse" x1="-2929.0908" y1="-3361.0071" x2="-2979.6641" y2="-3108.1404" gradientTransform="matrix(-1 0 0 1 -1234.118 0)">
					<stop  offset="0" style="stop-color:#FF928E"/>
					<stop  offset="1" style="stop-color:#FE7062"/>
				</linearGradient>
				<path style="fill:url(#SVGID_00000077313777713852474430000012012992289051630742_);" d="M2937.004,2017.61
					c21.096,105.228,13.535,293.568,8.569,379.474c-1.396,24.146,15.46,57.619,29.084,80.455c2.137,3.582,0.818,8.168-2.892,10.075
					c-22.81,11.723-100.084,48.056-189.643,52.576c-5.972,0.301-11.304-3.766-12.851-9.542
					c-66.433-248.051-143.594-406.557-143.594-406.557C2710.867,1988.051,2937.004,2017.61,2937.004,2017.61z"/>
				
					<linearGradient id="SVGID_00000074411569524852151710000013859250430928944806_" gradientUnits="userSpaceOnUse" x1="2883.2332" y1="2607.1738" x2="3051.8115" y2="2083.4583">
					<stop  offset="0" style="stop-color:#4F52FF"/>
					<stop  offset="1" style="stop-color:#4042E2"/>
				</linearGradient>
				<path style="fill:url(#SVGID_00000074411569524852151710000013859250430928944806_);" d="M2906.643,2665.244
					c0.936,0,1.885-0.253,2.744-0.774c2.488-1.521,3.278-4.766,1.764-7.251c-0.887-1.46-22.219-35.938-65.384-56.764
					c-2.623-1.259-5.782-0.17-7.053,2.46c-1.266,2.625-0.165,5.787,2.463,7.051c40.242,19.418,60.75,52.416,60.954,52.746
					C2903.126,2664.341,2904.864,2665.244,2906.643,2665.244z"/>
				<g>
					
						<linearGradient id="SVGID_00000149358168170062026400000010452578256582466692_" gradientUnits="userSpaceOnUse" x1="-4190.0791" y1="2328.999" x2="-4386.1475" y2="2502.6223" gradientTransform="matrix(-1 0 0 1 -1234.118 0)">
						<stop  offset="0" style="stop-color:#FEBBBA"/>
						<stop  offset="1" style="stop-color:#FF928E"/>
					</linearGradient>
					<path style="fill:url(#SVGID_00000149358168170062026400000010452578256582466692_);" d="M3069.33,2319.614
						c-6.776,49.021-26.797,102.49-66.848,159.286l-15.225-12.412c0,0,17.576-71.308,7.584-152.235
						C3019.547,2309.434,3048.725,2314.402,3069.33,2319.614z"/>
					
						<linearGradient id="SVGID_00000060729603021734526380000001470596789538730655_" gradientUnits="userSpaceOnUse" x1="-3107.5483" y1="-3396.7075" x2="-3158.1216" y2="-3143.8406" gradientTransform="matrix(-1 0 0 1 -1234.118 0)">
						<stop  offset="0" style="stop-color:#FF928E"/>
						<stop  offset="1" style="stop-color:#FE7062"/>
					</linearGradient>
					<path style="fill:url(#SVGID_00000060729603021734526380000001470596789538730655_);" d="M2913.441,2147.448l23.563-129.838
						c0,0,157.436,120.342,132.325,302.004c-20.604-5.212-49.783-10.18-74.489-5.36
						C2987.643,2255.957,2966.144,2192.67,2913.441,2147.448z"/>
				</g>
				<g>
					
						<linearGradient id="SVGID_00000125593881533464649720000000677994532422188440_" gradientUnits="userSpaceOnUse" x1="-2741.542" y1="-3323.5183" x2="-2792.1152" y2="-3070.6521" gradientTransform="matrix(-1 0 0 1 -1234.118 0)">
						<stop  offset="0" style="stop-color:#FF928E"/>
						<stop  offset="1" style="stop-color:#FE7062"/>
					</linearGradient>
					<path style="fill:url(#SVGID_00000125593881533464649720000000677994532422188440_);" d="M2625.678,2124.091l60.77,130.877
						c-9.826,79.014-52.272,113.179-98.039,126.283c-2.854-36.011-11.96-65.105-20.409-85.229
						C2626.478,2235.645,2625.678,2124.091,2625.678,2124.091z"/>
					
						<linearGradient id="SVGID_00000150815381403393710090000000579961410745050253_" gradientUnits="userSpaceOnUse" x1="-3822.5261" y1="2345.4219" x2="-3668.1145" y2="2345.4219" gradientTransform="matrix(-1 0 0 1 -1234.118 0)">
						<stop  offset="0" style="stop-color:#FEBBBA"/>
						<stop  offset="1" style="stop-color:#FF928E"/>
					</linearGradient>
					<path style="fill:url(#SVGID_00000150815381403393710090000000579961410745050253_);" d="M2567.999,2296.022
						c8.449,20.125,17.555,49.218,20.409,85.229c-122.106,47.375-154.412-44.503-154.412-44.503l22.567-3.981
						C2507.525,2338.135,2543.123,2321.706,2567.999,2296.022z"/>
				</g>
				
					<linearGradient id="SVGID_00000049942010099550312570000014012280013844847526_" gradientUnits="userSpaceOnUse" x1="-3972.6184" y1="1932.7775" x2="-3974.3049" y2="2221.1301" gradientTransform="matrix(-1 0 0 1 -1234.118 0)">
					<stop  offset="0" style="stop-color:#FEBBBA"/>
					<stop  offset="1" style="stop-color:#FF928E"/>
				</linearGradient>
				<path style="fill:url(#SVGID_00000049942010099550312570000014012280013844847526_);" d="M2681.667,1962.513l29.338,107.85
					c3.296,12.115,16.401,18.622,28.06,13.961c12.582-5.03,28.544-11.895,42.285-19.314c14.668-7.919,19.257-26.788,9.972-40.632
					l-60.995-90.948L2681.667,1962.513z"/>
			</g>
			
				<linearGradient id="SVGID_00000146460613376080439880000004749980539512967586_" gradientUnits="userSpaceOnUse" x1="2411.2632" y1="2268.3257" x2="2988.9233" y2="2538.0503">
				<stop  offset="0" style="stop-color:#09005D"/>
				<stop  offset="1" style="stop-color:#1A0F91"/>
			</linearGradient>
			<path style="fill:url(#SVGID_00000146460613376080439880000004749980539512967586_);" d="M2378.032,2264.578l751.761,273.611
				c31.529,11.475,46.6,47.376,32.71,77.919l-2.281,5.015c-12.29,27.023-44.229,38.876-71.172,26.412l-729.95-337.679
				L2378.032,2264.578z"/>
			<ellipse style="opacity:0.39;fill:#FFFFFF;" cx="2032.492" cy="2099.993" rx="371.104" ry="364.41"/>
			
				<linearGradient id="SVGID_00000062157396728112538750000016734397228503800472_" gradientUnits="userSpaceOnUse" x1="1696.0818" y1="1826.3636" x2="2334.4299" y2="2345.5828">
				<stop  offset="0" style="stop-color:#09005D"/>
				<stop  offset="1" style="stop-color:#1A0F91"/>
			</linearGradient>
			<path style="fill:url(#SVGID_00000062157396728112538750000016734397228503800472_);" d="M1619.553,2099.992
				c0,223.947,184.879,405.491,412.94,405.491c228.06,0,412.939-181.543,412.939-405.491c0-223.945-184.879-405.49-412.939-405.49
				C1804.432,1694.503,1619.553,1876.047,1619.553,2099.992z M1680.212,2099.992c0-191.049,157.721-345.925,352.281-345.925
				c194.558,0,352.28,154.876,352.28,345.925c0,191.05-157.721,345.925-352.28,345.925
				C1837.933,2445.917,1680.212,2291.042,1680.212,2099.992z"/>
			<path style="fill:#91B3FA;" d="M2413.683,2150.203c-1.519-0.195-2.59-1.581-2.399-3.1c1.211-9.524,2.062-19.161,2.524-28.648
				c0.073-1.53,1.093-2.744,2.913-2.634c1.526,0.073,2.708,1.376,2.634,2.906c-0.477,9.63-1.335,19.41-2.568,29.073
				c-0.176,1.402-1.372,2.425-2.751,2.425C2413.925,2150.225,2413.801,2150.217,2413.683,2150.203z M2408.474,2034.555
				c-4.608-25.695-11.989-50.96-21.945-75.096c0,0,0-0.007-0.007-0.015c-58.668-142.326-197.633-234.293-354.031-234.293
				c-72.931,0-143.83,20.261-205.029,58.591c-1.306,0.811-3.023,0.426-3.823-0.88c-0.815-1.299-0.426-3.008,0.873-3.823
				c62.087-38.883,133.998-59.434,207.978-59.434c158.651,0,299.634,93.314,359.16,237.719l0.007,0.007
				c10.103,24.502,17.594,50.156,22.275,76.247c0.271,1.508-0.734,2.949-2.238,3.217c-0.169,0.029-0.33,0.044-0.491,0.044
				C2409.883,2036.84,2408.716,2035.898,2408.474,2034.555z"/>
			<g>
				
					<linearGradient id="SVGID_00000082334255585599835530000009587116179829105057_" gradientUnits="userSpaceOnUse" x1="-4182.6089" y1="2797.8442" x2="-4324.5493" y2="2985.6199" gradientTransform="matrix(-0.9897 -0.1428 -0.1428 0.9897 -1095.0634 -1480.9402)">
					<stop  offset="0" style="stop-color:#FEBBBA"/>
					<stop  offset="1" style="stop-color:#FF928E"/>
				</linearGradient>
				<path style="fill:url(#SVGID_00000082334255585599835530000009587116179829105057_);" d="M2617.482,1880.573
					c-0.267,1.852,24.47,123.073,24.47,123.073l68.916-15.596l-6.376-118.376
					C2704.491,1869.674,2621.956,1849.567,2617.482,1880.573z"/>
				
					<linearGradient id="SVGID_00000011752809044467587290000011697449148133150387_" gradientUnits="userSpaceOnUse" x1="-5149.1924" y1="1916.2653" x2="-4656.7217" y2="1978.5316" gradientTransform="matrix(-1 0 0 1 -2374.8516 0)">
					<stop  offset="0" style="stop-color:#09005D"/>
					<stop  offset="1" style="stop-color:#1A0F91"/>
				</linearGradient>
				<path style="fill:url(#SVGID_00000011752809044467587290000011697449148133150387_);" d="M2688.991,1896.053l8.237,62.052
					c0.105,0.796,0.105,1.582-0.009,2.377c-0.695,4.864-4.313,21.423-21.03,16.688c-15.168-4.297-29.074-7.992-38.68-5.054
					c-4.313,1.319-6.916,5.688-6.012,10.107c2.25,11.013,7.78,35.737,15.862,56.483c1.64,4.21,6.25,6.421,10.588,5.156
					c13.07-3.811,40.412-12.618,60.747-24.856c2.756-1.658,4.397-4.655,4.261-7.868c-0.661-15.665-2.493-63.284-0.951-76.632
					c1.447-12.529,16.823-20.035,23.504-22.726c2.19-0.882,3.907-2.608,4.782-4.801c3.094-7.752,7.359-25.692-15.249-33.044
					c-4.732-1.538-7.226-6.64-5.544-11.322c3.348-9.322,4.76-23.548-12.729-31.386c-17.777-7.967-31.053,1.51-38.221,9.211
					c-2.898,3.114-7.55,3.589-11.146,1.316c-2.047-1.294-4.685-1.718-7.872,0.267c-4.294,2.675-9.981,0.852-12.197-3.696
					c-4.257-8.738-12.933-18.098-30.336-15.117c-30.882,5.289-34.38,39.51-26.233,59.563c8.147,20.053,41.302,12.416,57.935,2.306
					c12.646-7.687,29.051,0.37,36.188,4.674C2687.148,1891.114,2688.644,1893.436,2688.991,1896.053z"/>
				
					<linearGradient id="SVGID_00000049198648287213715820000005370334764950490536_" gradientUnits="userSpaceOnUse" x1="-4390.4956" y1="2946.5479" x2="-4276.6479" y2="2829.7432" gradientTransform="matrix(-0.9897 -0.1428 -0.1428 0.9897 -1095.0634 -1480.9402)">
					<stop  offset="0" style="stop-color:#FEBBBA"/>
					<stop  offset="1" style="stop-color:#FF928E"/>
				</linearGradient>
				<path style="fill:url(#SVGID_00000049198648287213715820000005370334764950490536_);" d="M2724.778,1957.129
					c0,0-12.696-35.551,0.348-44.258s32.362-4.186,28.108,21.568C2747.944,1966.474,2724.778,1957.129,2724.778,1957.129z"/>
			</g>
			
				<linearGradient id="SVGID_00000005984016618513231540000012739722033111922090_" gradientUnits="userSpaceOnUse" x1="-4112.6514" y1="2416.4365" x2="-4308.7197" y2="2590.0593" gradientTransform="matrix(-1 0 0 1 -1234.118 0)">
				<stop  offset="0" style="stop-color:#FEBBBA"/>
				<stop  offset="1" style="stop-color:#FF928E"/>
			</linearGradient>
			<path style="fill:url(#SVGID_00000005984016618513231540000012739722033111922090_);" d="M2993.535,2464.327l-71.068-5.792
				l-30.778,28.372c0,0,7.281,10.065,30.046,4.28s53.947-7.205,53.947-7.205s31.427,14.168,31.81-12.341L2993.535,2464.327z"/>
			
				<linearGradient id="SVGID_00000096035971574446540800000007004931870988512664_" gradientUnits="userSpaceOnUse" x1="-3684.5193" y1="2327.2871" x2="-3629.2231" y2="2327.2871" gradientTransform="matrix(-1 0 0 1 -1234.118 0)">
				<stop  offset="0" style="stop-color:#FEBBBA"/>
				<stop  offset="1" style="stop-color:#FF928E"/>
			</linearGradient>
			<path style="fill:url(#SVGID_00000096035971574446540800000007004931870988512664_);" d="M2443.048,2353.559
				c-6.146,4.802-27.203-5.223-40.088-12.154c-6.28-3.378-9.321-10.721-7.166-17.518c3.101-9.779,8.268-22.401,14.634-23.992
				C2420.99,2297.254,2468.376,2333.771,2443.048,2353.559z"/>
			<path style="fill:#91B3FA;" d="M3114.958,2637.017c0.301,0,0.609-0.048,0.91-0.15c29.363-10.155,36.194-27.503,36.752-40.27
				c0.807-18.658-10.918-35.974-29.165-43.091l-90.269-35.2c-1.401-0.558-3.023,0.143-3.588,1.577
				c-0.558,1.427,0.147,3.038,1.578,3.595l90.269,35.196c16.032,6.255,26.333,21.395,25.629,37.68
				c-0.697,16.068-11.805,27.932-33.024,35.266c-1.446,0.503-2.216,2.08-1.709,3.529
				C3112.735,2636.298,3113.806,2637.017,3114.958,2637.017z"/>
			<path style="fill:#91B3FA;" d="M3004.373,2512.818c1.108,0,2.157-0.671,2.583-1.764c0.558-1.431-0.147-3.038-1.577-3.595
				l-11.703-4.56c-1.401-0.561-3.03,0.15-3.588,1.577c-0.558,1.431,0.147,3.038,1.577,3.595l11.703,4.56
				C3003.698,2512.76,3004.036,2512.818,3004.373,2512.818z"/>
		</g>
		<path style="opacity:0.56;fill:#FFFFFF;" d="M1457.012,2445.917H628.441c-5.773,0-10.496-4.723-10.496-10.496v-49.784
			c0-5.773,4.723-10.496,10.496-10.496h828.571c5.773,0,10.496,4.723,10.496,10.496v49.784
			C1467.508,2441.194,1462.785,2445.917,1457.012,2445.917z"/>
		<path style="opacity:0.56;fill:#FFFFFF;" d="M1451.787,2553.823H623.216c-5.773,0-10.496-4.723-10.496-10.496v-49.784
			c0-5.773,4.723-10.496,10.496-10.496h828.571c5.773,0,10.496,4.723,10.496,10.496v49.784
			C1462.283,2549.1,1457.56,2553.823,1451.787,2553.823z"/>
	</g>
</g>
</svg>
